<svg width="86" height="91" viewBox="0 0 86 91" fill="none" xmlns="http://www.w3.org/2000/svg">
<g filter="url(#filter0_d_440_349)">
<path fill-rule="evenodd" clip-rule="evenodd" d="M43 72C55.1503 72 65 62.1503 65 50C65 37.8497 55.1503 28 43 28C30.8497 28 21 37.8497 21 50C21 62.1503 30.8497 72 43 72Z" fill="black" fill-opacity="0.01"/>
</g>
<g filter="url(#filter1_d_440_349)">
<path fill-rule="evenodd" clip-rule="evenodd" d="M43 72C59.5685 72 73 58.5685 73 42C73 25.4315 59.5685 12 43 12C26.4315 12 13 25.4315 13 42C13 58.5685 26.4315 72 43 72Z" fill="#2196F3"/>
<path fill-rule="evenodd" clip-rule="evenodd" d="M43 72C59.5685 72 73 58.5685 73 42C73 25.4315 59.5685 12 43 12C26.4315 12 13 25.4315 13 42C13 58.5685 26.4315 72 43 72Z" stroke="#42A5F5" stroke-width="4"/>
</g>
<mask id="mask0_440_349" style="mask-type:luminance" maskUnits="userSpaceOnUse" x="13" y="12" width="60" height="60">
<path fill-rule="evenodd" clip-rule="evenodd" d="M43 72C59.5685 72 73 58.5685 73 42C73 25.4315 59.5685 12 43 12C26.4315 12 13 25.4315 13 42C13 58.5685 26.4315 72 43 72Z" fill="white"/>
</mask>
<g mask="url(#mask0_440_349)">
<path d="M15.714 34.875H69.536" stroke="#42A5F5" stroke-width="4" stroke-linecap="square"/>
<path d="M15.714 50.625H69.536" stroke="#42A5F5" stroke-width="4" stroke-linecap="square"/>
<path d="M42.25 16.5C42.25 16.5 32.2878 28.0775 32.5035 42.75C32.7191 57.4225 42.25 67.5 42.25 67.5" stroke="#42A5F5" stroke-width="4" stroke-linecap="round" stroke-linejoin="round"/>
<path d="M43 16.5C43 16.5 52.9622 28.0775 52.7465 42.75C52.5309 57.4225 43 67.5 43 67.5" stroke="#42A5F5" stroke-width="4" stroke-linecap="round" stroke-linejoin="round"/>
</g>
<path fill-rule="evenodd" clip-rule="evenodd" d="M53.1947 31.0279C53.3947 30.9124 53.6152 30.8407 53.8457 30.8261C54.8622 30.7621 57.7981 30.6781 58.4348 31.7809C59.0716 32.8839 57.5299 35.3837 56.9662 36.2314C56.8384 36.4236 56.6661 36.5785 56.4663 36.6938L50.3905 40.2017L51.2344 57.3021C51.2462 57.5415 51.1251 57.768 50.9195 57.8912L49.6702 58.6394C49.5056 58.7379 49.3059 58.7587 49.1245 58.6961L48.1777 58.3691C48.0191 58.3143 47.8879 58.2003 47.8115 58.0509L41.3535 45.4192L34.9844 49.0964L34.2975 53.7679C34.2499 54.0912 33.9695 54.3289 33.6427 54.3227L33.1447 54.3132C32.8929 54.3084 32.6665 54.1584 32.5639 53.9283L30.7742 49.9123C29.5441 49.9516 28.3892 49.8307 28.0793 49.294C27.7698 48.7579 28.243 47.7021 28.8931 46.6611L26.3296 43.1302C26.1816 42.9263 26.1649 42.6553 26.2867 42.4347L26.5275 41.9988C26.6855 41.7127 27.0315 41.5886 27.3353 41.7091L31.6975 43.4393L38.078 39.7555L30.4193 27.9267C30.3281 27.7859 30.295 27.6152 30.3268 27.4505L30.5171 26.467C30.5535 26.2787 30.6713 26.1161 30.839 26.0228L32.1116 25.315C32.3211 25.1985 32.5778 25.2069 32.7792 25.3368L47.077 34.56L53.1947 31.0279Z" fill="white"/>
<mask id="mask1_440_349" style="mask-type:luminance" maskUnits="userSpaceOnUse" x="26" y="25" width="33" height="34">
<path fill-rule="evenodd" clip-rule="evenodd" d="M53.1947 31.0279C53.3947 30.9124 53.6152 30.8407 53.8457 30.8261C54.8622 30.7621 57.7981 30.6781 58.4348 31.7809C59.0716 32.8839 57.5299 35.3837 56.9662 36.2314C56.8384 36.4236 56.6661 36.5785 56.4663 36.6938L50.3905 40.2017L51.2344 57.3021C51.2462 57.5415 51.1251 57.768 50.9195 57.8912L49.6702 58.6394C49.5056 58.7379 49.3059 58.7587 49.1245 58.6961L48.1777 58.3691C48.0191 58.3143 47.8879 58.2003 47.8115 58.0509L41.3535 45.4192L34.9844 49.0964L34.2975 53.7679C34.2499 54.0912 33.9695 54.3289 33.6427 54.3227L33.1447 54.3132C32.8929 54.3084 32.6665 54.1584 32.5639 53.9283L30.7742 49.9123C29.5441 49.9516 28.3892 49.8307 28.0793 49.294C27.7698 48.7579 28.243 47.7021 28.8931 46.6611L26.3296 43.1302C26.1816 42.9263 26.1649 42.6553 26.2867 42.4347L26.5275 41.9988C26.6855 41.7127 27.0315 41.5886 27.3353 41.7091L31.6975 43.4393L38.078 39.7555L30.4193 27.9267C30.3281 27.7859 30.295 27.6152 30.3268 27.4505L30.5171 26.467C30.5535 26.2787 30.6713 26.1161 30.839 26.0228L32.1116 25.315C32.3211 25.1985 32.5778 25.2069 32.7792 25.3368L47.077 34.56L53.1947 31.0279Z" fill="white"/>
</mask>
<g mask="url(#mask1_440_349)">
<rect x="47.5361" y="32.7839" width="1.30853" height="12.4084" transform="rotate(60 47.5361 32.7839)" fill="#EBECF2"/>
<path fill-rule="evenodd" clip-rule="evenodd" d="M50.9194 57.8911C51.1251 57.7679 51.2462 57.5415 51.2344 57.302L50.3629 39.6426L41.1265 44.9752L47.8114 58.0508C47.8878 58.2002 48.0191 58.3143 48.1777 58.369L49.1245 58.696C49.3058 58.7587 49.5056 58.7379 49.6701 58.6393L50.9194 57.8911Z" fill="#DEE1E3"/>
<path opacity="0.4" fill-rule="evenodd" clip-rule="evenodd" d="M30.8366 49.8013L30.7476 49.8527L32.5638 53.9282C32.6664 54.1584 32.8928 54.3084 33.1447 54.3132L33.6426 54.3226C33.9694 54.3288 34.2498 54.0912 34.2974 53.7678L35.023 48.8334L34.56 49.1007C34.4167 49.1834 34.2626 49.2452 34.1011 49.2813C33.551 49.4041 32.1548 49.6951 30.8366 49.8013Z" fill="#DEE1E3"/>
<path fill-rule="evenodd" clip-rule="evenodd" d="M41.2485 45.2135L50.3779 39.9426L50.4772 41.954L42.9563 48.5538L41.2485 45.2135Z" fill="#C5C6CC"/>
<path fill-rule="evenodd" clip-rule="evenodd" d="M59.4822 34.9526L29.6912 52.1524C29.6912 52.1524 28.8122 50.5637 28.0791 49.2941C28.0703 49.2787 28.0619 49.2631 28.054 49.2474C29.4055 49.3452 32.1268 49.2352 34.766 47.7115L55.3905 35.8039C57.6821 34.4809 58.2434 32.7675 58.5525 32.031C59.031 33.3161 59.4822 34.9526 59.4822 34.9526Z" fill="#DEE1E3"/>
</g>
<defs>
<filter id="filter0_d_440_349" x="10" y="25" width="66" height="66" filterUnits="userSpaceOnUse" color-interpolation-filters="sRGB">
<feFlood flood-opacity="0" result="BackgroundImageFix"/>
<feColorMatrix in="SourceAlpha" type="matrix" values="0 0 0 0 0 0 0 0 0 0 0 0 0 0 0 0 0 0 127 0" result="hardAlpha"/>
<feOffset dy="8"/>
<feGaussianBlur stdDeviation="5.5"/>
<feColorMatrix type="matrix" values="0 0 0 0 0.215686 0 0 0 0 0.407843 0 0 0 0 0.556863 0 0 0 0.25 0"/>
<feBlend mode="normal" in2="BackgroundImageFix" result="effect1_dropShadow_440_349"/>
<feBlend mode="normal" in="SourceGraphic" in2="effect1_dropShadow_440_349" result="shape"/>
</filter>
<filter id="filter1_d_440_349" x="0" y="0" width="86" height="86" filterUnits="userSpaceOnUse" color-interpolation-filters="sRGB">
<feFlood flood-opacity="0" result="BackgroundImageFix"/>
<feColorMatrix in="SourceAlpha" type="matrix" values="0 0 0 0 0 0 0 0 0 0 0 0 0 0 0 0 0 0 127 0" result="hardAlpha"/>
<feOffset dy="1"/>
<feGaussianBlur stdDeviation="5.5"/>
<feColorMatrix type="matrix" values="0 0 0 0 0.215686 0 0 0 0 0.407843 0 0 0 0 0.556863 0 0 0 0.3 0"/>
<feBlend mode="normal" in2="BackgroundImageFix" result="effect1_dropShadow_440_349"/>
<feBlend mode="normal" in="SourceGraphic" in2="effect1_dropShadow_440_349" result="shape"/>
</filter>
</defs>
</svg>
